<?xml version="1.0" encoding="UTF-8"?>
<svg xmlns="http://www.w3.org/2000/svg" xmlns:xlink="http://www.w3.org/1999/xlink" width="24px" height="24px" viewBox="0 0 24 24" version="1.1">
<g id="surface1">
<path style=" stroke:none;fill-rule:nonzero;fill:rgb(47.058824%,50.980392%,54.117647%);fill-opacity:1;" d="M 5.746094 16.085938 L 11.972656 16.085938 C 12.101562 15.75 12.253906 15.429688 12.429688 15.121094 L 5.746094 15.121094 Z M 14.398438 9.355469 L 5.746094 9.355469 L 5.746094 10.3125 L 14.398438 10.3125 Z M 2.859375 22.339844 C 2.324219 22.339844 1.894531 21.910156 1.894531 21.375 L 1.894531 2.625 C 1.894531 2.089844 2.324219 1.660156 2.859375 1.660156 L 17.765625 1.660156 C 18.300781 1.660156 18.730469 2.089844 18.730469 2.625 L 18.730469 11.785156 C 19.058594 11.804688 19.378906 11.851562 19.695312 11.914062 L 19.695312 2.625 C 19.695312 1.566406 18.835938 0.703125 17.773438 0.703125 L 2.867188 0.703125 C 1.800781 0.695312 0.9375 1.554688 0.9375 2.625 L 0.9375 21.375 C 0.9375 22.433594 1.800781 23.296875 2.859375 23.296875 L 13.546875 23.296875 C 13.246094 23.007812 12.976562 22.679688 12.730469 22.332031 L 2.859375 22.332031 Z M 14.398438 12.976562 L 14.398438 12.242188 L 5.746094 12.242188 L 5.746094 13.210938 L 14.101562 13.210938 C 14.195312 13.125 14.296875 13.039062 14.398438 12.976562 Z M 18.242188 13.6875 C 15.589844 13.6875 13.433594 15.835938 13.433594 18.507812 C 13.433594 21.167969 15.589844 23.316406 18.242188 23.316406 C 20.90625 23.316406 23.0625 21.160156 23.0625 18.507812 C 23.0625 15.835938 20.90625 13.6875 18.242188 13.6875 Z M 18.242188 22.339844 C 16.125 22.339844 14.398438 20.617188 14.398438 18.496094 C 14.398438 16.367188 16.125 14.644531 18.242188 14.644531 C 20.371094 14.644531 22.097656 16.359375 22.097656 18.496094 C 22.097656 20.617188 20.382812 22.339844 18.242188 22.339844 Z M 14.398438 6.46875 L 5.746094 6.46875 L 5.746094 7.425781 L 14.398438 7.425781 Z M 18.730469 16.085938 L 17.765625 16.085938 L 17.765625 18.976562 L 20.652344 18.976562 L 20.652344 18.007812 L 18.730469 18.007812 Z M 18.730469 16.085938 "/>
</g>
</svg>
