<?xml version="1.0" encoding="UTF-8"?>
<svg xmlns="http://www.w3.org/2000/svg" xmlns:xlink="http://www.w3.org/1999/xlink" width="24px" height="24px" viewBox="0 0 24 24" version="1.1">
<g id="surface1">
<path style=" stroke:none;fill-rule:nonzero;fill:rgb(22.352941%,58.823529%,36.078431%);fill-opacity:1;" d="M 11.570312 0.992188 C 11.269531 1.085938 10.988281 1.351562 8.792969 3.542969 C 7.070312 5.25 6.382812 5.960938 6.300781 6.121094 C 6.195312 6.320312 6.1875 6.382812 6.1875 6.769531 C 6.1875 7.246094 6.253906 7.453125 6.507812 7.726562 L 6.636719 7.867188 L 9.355469 7.867188 L 9.441406 7.976562 C 9.535156 8.089844 9.535156 8.101562 9.535156 13.339844 L 9.535156 18.589844 L 10.929688 18.589844 C 12.28125 18.589844 12.328125 18.589844 12.441406 18.496094 C 12.601562 18.375 12.601562 18.113281 12.441406 17.992188 C 12.328125 17.90625 12.273438 17.898438 11.277344 17.898438 L 10.226562 17.898438 L 10.226562 12.976562 C 10.226562 7.5 10.238281 7.773438 9.9375 7.472656 C 9.65625 7.191406 9.554688 7.179688 8.164062 7.179688 L 6.945312 7.179688 L 6.882812 7.070312 C 6.777344 6.910156 6.789062 6.617188 6.898438 6.441406 C 7.058594 6.1875 11.632812 1.707031 11.8125 1.632812 C 12.160156 1.480469 12.09375 1.433594 14.679688 3.976562 C 15.976562 5.25 17.070312 6.355469 17.117188 6.441406 C 17.230469 6.617188 17.242188 6.910156 17.136719 7.070312 L 17.070312 7.179688 L 16.023438 7.179688 C 15.066406 7.179688 14.960938 7.191406 14.785156 7.273438 C 14.539062 7.386719 14.410156 7.5 14.296875 7.726562 L 14.203125 7.894531 L 14.195312 12.835938 C 14.183594 16.351562 14.164062 17.792969 14.136719 17.839844 C 14.109375 17.867188 14.023438 17.898438 13.941406 17.898438 C 13.601562 17.898438 13.433594 18.28125 13.6875 18.496094 C 13.800781 18.589844 13.835938 18.601562 14.023438 18.582031 C 14.324219 18.542969 14.585938 18.375 14.738281 18.132812 L 14.859375 17.925781 L 14.898438 8.042969 L 15 7.960938 C 15.09375 7.882812 15.179688 7.875 16.257812 7.875 L 17.417969 7.875 L 17.578125 7.660156 C 17.804688 7.339844 17.867188 7.105469 17.851562 6.695312 C 17.832031 6.421875 17.804688 6.289062 17.71875 6.121094 C 17.570312 5.832031 12.964844 1.226562 12.675781 1.085938 C 12.523438 1.011719 12.394531 0.984375 12.09375 0.976562 C 11.851562 0.964844 11.625 0.976562 11.570312 0.992188 Z M 11.570312 0.992188 "/>
<path style=" stroke:none;fill-rule:nonzero;fill:rgb(22.352941%,58.823529%,36.078431%);fill-opacity:1;" d="M 20.691406 16.882812 C 20.625 16.914062 20.511719 17.128906 20.511719 17.222656 C 20.511719 17.257812 20.570312 17.351562 20.632812 17.417969 L 20.757812 17.539062 L 22.367188 17.539062 L 22.367188 19.5 C 22.367188 20.839844 22.351562 21.507812 22.3125 21.648438 C 22.246094 21.929688 21.9375 22.226562 21.664062 22.292969 C 21.375 22.367188 2.617188 22.367188 2.324219 22.292969 C 2.042969 22.226562 1.742188 21.917969 1.679688 21.648438 C 1.640625 21.507812 1.621094 20.859375 1.621094 19.546875 L 1.621094 17.644531 L 2.210938 17.644531 C 2.605469 17.644531 2.804688 17.664062 2.8125 17.699219 C 2.820312 17.726562 2.839844 18.066406 2.851562 18.460938 C 2.859375 18.945312 2.898438 19.238281 2.945312 19.367188 C 3.160156 19.96875 3.675781 20.4375 4.273438 20.578125 C 4.398438 20.605469 7.191406 20.625 12.019531 20.625 C 20.296875 20.625 19.847656 20.632812 20.296875 20.382812 C 20.726562 20.128906 21.085938 19.613281 21.160156 19.132812 C 21.226562 18.75 21.113281 18.554688 20.820312 18.554688 C 20.644531 18.554688 20.523438 18.703125 20.492188 18.984375 C 20.4375 19.453125 20.15625 19.789062 19.734375 19.894531 C 19.59375 19.929688 17.324219 19.941406 11.914062 19.929688 L 4.285156 19.921875 L 4.117188 19.828125 C 3.890625 19.707031 3.730469 19.539062 3.636719 19.320312 C 3.582031 19.179688 3.5625 18.957031 3.542969 18.195312 C 3.535156 17.671875 3.515625 17.183594 3.507812 17.101562 L 3.488281 16.960938 L 0.9375 16.960938 L 0.9375 19.238281 C 0.9375 21.195312 0.945312 21.554688 1.003906 21.757812 C 1.171875 22.332031 1.660156 22.808594 2.222656 22.976562 C 2.4375 23.035156 3.394531 23.042969 11.992188 23.042969 C 20.585938 23.042969 21.554688 23.035156 21.757812 22.976562 C 22.332031 22.808594 22.820312 22.320312 22.976562 21.757812 C 23.035156 21.554688 23.042969 21.195312 23.042969 19.199219 L 23.042969 16.875 L 21.890625 16.875 C 21.273438 16.855469 20.726562 16.875 20.691406 16.882812 Z M 20.691406 16.882812 "/>
</g>
</svg>
